HIERARCHY
ROOT joint_Root
{
	OFFSET 0.0 0.0 0.0
	CHANNELS 6 Xposition Yposition Zposition Zrotation Xrotation Yrotation 
	JOINT Hips
	{
		OFFSET 4.5925 91.4895 -427.239
		CHANNELS 6 Xposition Yposition Zposition Zrotation Xrotation Yrotation 
		JOINT Spine
		{
			OFFSET 15.7357 0.0 0.0
			CHANNELS 6 Xposition Yposition Zposition Zrotation Xrotation Yrotation 
			JOINT Chest
			{
				OFFSET 8.98455 -0.406207 0.0
				CHANNELS 6 Xposition Yposition Zposition Zrotation Xrotation Yrotation 
				JOINT Neck
				{
					OFFSET 16.3773 0.0 0.0
					CHANNELS 6 Xposition Yposition Zposition Zrotation Xrotation Yrotation 
					JOINT Head
					{
						OFFSET 6.45672 0.0 0.0
						CHANNELS 6 Xposition Yposition Zposition Zrotation Xrotation Yrotation 
						End Site
						{
							OFFSET 0.0 0.0 0.0
						}
					}
				}
				JOINT Shoulder_L
				{
					OFFSET 12.9942 -0.242716 4.98039
					CHANNELS 6 Xposition Yposition Zposition Zrotation Xrotation Yrotation 
					JOINT UpperArm_L
					{
						OFFSET 5.34809 0.0 0.0
						CHANNELS 6 Xposition Yposition Zposition Zrotation Xrotation Yrotation 
						JOINT LowerArm_L
						{
							OFFSET 24.3286 1.87007e-05 0.0
							CHANNELS 6 Xposition Yposition Zposition Zrotation Xrotation Yrotation 
							JOINT Hand_L
							{
								OFFSET 22.2916 0.0 0.0
								CHANNELS 6 Xposition Yposition Zposition Zrotation Xrotation Yrotation 
								End Site
								{
									OFFSET 0.0 0.0 0.0
								}
							}
						}
					}
				}
				JOINT Shoulder_R
				{
					OFFSET 12.9945 -0.242716 -4.98039
					CHANNELS 6 Xposition Yposition Zposition Zrotation Xrotation Yrotation 
					JOINT UpperArm_R
					{
						OFFSET -5.34813 0.0 0.0
						CHANNELS 6 Xposition Yposition Zposition Zrotation Xrotation Yrotation 
						JOINT LowerArm_R
						{
							OFFSET -24.3289 0.000322201 0.0
							CHANNELS 6 Xposition Yposition Zposition Zrotation Xrotation Yrotation 
							JOINT Hand_R
							{
								OFFSET -22.2915 -0.000108084 0.0
								CHANNELS 6 Xposition Yposition Zposition Zrotation Xrotation Yrotation 
								End Site
								{
									OFFSET 0.0 0.0 0.0
								}
							}
						}
					}
				}
			}
		}
		JOINT UpperLeg_L
		{
			OFFSET -2.19248 -6.46944 0.0
			CHANNELS 6 Xposition Yposition Zposition Zrotation Xrotation Yrotation 
			JOINT LowerLeg_L
			{
				OFFSET 39.0811 0.0 -1.23785e-05
				CHANNELS 6 Xposition Yposition Zposition Zrotation Xrotation Yrotation 
				JOINT Foot_L
				{
					OFFSET 40.9854 0.0 -1.26872e-05
					CHANNELS 6 Xposition Yposition Zposition Zrotation Xrotation Yrotation 
					JOINT Toes_L
					{
						OFFSET 11.7543 0.0 0.0
						CHANNELS 6 Xposition Yposition Zposition Zrotation Xrotation Yrotation 
						End Site
						{
							OFFSET 0.0 0.0 0.0
						}
					}
				}
			}
		}
		JOINT UpperLeg_R
		{
			OFFSET -2.19251 6.46944 0.0
			CHANNELS 6 Xposition Yposition Zposition Zrotation Xrotation Yrotation 
			JOINT LowerLeg_R
			{
				OFFSET -39.0811 -0.00228153 -0.0401928
				CHANNELS 6 Xposition Yposition Zposition Zrotation Xrotation Yrotation 
				JOINT Foot_R
				{
					OFFSET -40.9854 0.0 0.0
					CHANNELS 6 Xposition Yposition Zposition Zrotation Xrotation Yrotation 
					JOINT Toes_R
					{
						OFFSET -11.7543 0.0 0.0
						CHANNELS 6 Xposition Yposition Zposition Zrotation Xrotation Yrotation 
						End Site
						{
							OFFSET 0.0 0.0 0.0
						}
					}
				}
			}
		}
	}
}
MOTION
Frames:	4
Frame Time:	0.0333333
0.000000 0.000000 0.000000 0.000000 0.000000 -0.000000 -1.191770 83.702100 -2.418010 87.011900 -3.413630 10.044500 15.735700 0.000005 -0.000001 82.904600 81.062100 -81.530600 8.984550 -0.406207 -0.000000 10.005800 -2.167320 2.936070 16.377300 -0.000001 -0.000001 -3.193130 -1.173070 1.078750 6.456720 -0.000001 -0.000000 -5.913550 1.415560 0.319733 12.994200 -0.242716 4.980390 -90.914600 3.040430 -73.248100 5.348090 -0.000007 -0.000001 -68.649900 22.688200 -6.841550 24.328600 0.000019 0.000005 12.190500 19.079100 -33.460800 22.291600 -0.000001 0.000005 16.636500 5.245770 1.535540 12.994500 -0.242716 -4.980390 88.081900 10.014500 -79.098800 -5.348130 -0.000001 -0.000004 -60.572400 11.829100 -7.934910 -24.328900 0.000322 -0.000009 -6.774790 -7.293240 -43.058400 -22.291500 -0.000108 -0.000004 19.698900 5.442800 -4.388160 -2.192480 -6.469440 -0.000000 -170.148000 -15.874400 -14.737100 39.081100 -0.000007 -0.000012 -0.174756 0.105841 58.800000 40.985400 -0.000006 -0.000013 3.798780 10.903300 -83.568600 11.754300 -0.000000 0.000003 -0.000119 -0.001191 -16.623100 -2.192510 6.469440 -0.000001 -179.880000 9.981430 165.893000 -39.081100 -0.002282 -0.040193 0.056901 -0.034467 57.299100 -40.985400 0.000008 0.000006 8.064050 5.554060 -83.830900 -11.754300 -0.000006 -0.000006 -0.555140 -0.683387 -16.287300
0.000000 0.000000 0.000000 0.000000 0.000000 -0.000000 -1.432180 85.839300 -1.410250 86.367800 -1.164790 10.092400 15.735700 0.000005 -0.000001 81.153400 82.098300 -80.487800 8.984550 -0.406207 -0.000000 7.869150 -2.419710 1.496370 16.377300 -0.000001 -0.000001 -1.514450 -1.531160 0.966103 6.456720 -0.000001 -0.000000 -3.968320 0.708648 1.942830 12.994200 -0.242716 4.980390 -90.819700 2.617700 -72.604600 5.348090 -0.000007 -0.000001 -69.896800 21.399600 -5.189000 24.328600 0.000019 0.000005 9.474140 16.839800 -29.940200 22.291600 -0.000001 0.000005 16.004500 5.174930 3.342790 12.994500 -0.242716 -4.980390 88.129000 8.819190 -77.970500 -5.348130 -0.000001 -0.000004 -60.056500 4.729060 -7.379660 -24.328900 0.000322 -0.000009 -13.281100 -10.533600 -52.232500 -22.291500 -0.000108 -0.000004 18.708600 5.472940 -5.470210 -2.192480 -6.469440 -0.000000 -169.654000 -13.923400 -11.186400 39.081100 -0.000007 -0.000012 -0.149868 0.116043 52.250300 40.985400 -0.000006 -0.000013 3.218580 11.522900 -80.805300 11.754300 -0.000000 0.000003 -0.000101 -0.001040 -16.617400 -2.192510 6.469440 -0.000001 -179.822000 12.704200 170.449000 -39.081100 -0.002282 -0.040193 0.052297 -0.040858 50.205900 -40.985400 0.000008 0.000006 7.921420 6.564640 -80.803000 -11.754300 -0.000006 -0.000006 -0.699781 -0.864028 -16.645100
0.000000 0.000000 0.000000 0.000000 0.000000 -0.000000 -1.348040 88.502600 -0.386668 86.604000 -0.198561 9.102140 15.735700 0.000005 -0.000001 80.673000 83.708300 -81.071800 8.984550 -0.406207 -0.000000 4.646430 -2.024820 -0.714464 16.377300 -0.000001 -0.000001 0.848587 -1.493630 0.764713 6.456720 -0.000001 -0.000000 -2.022190 0.218198 2.998140 12.994200 -0.242716 4.980390 -90.589300 1.741880 -71.298900 5.348090 -0.000007 -0.000001 -70.836500 20.470900 -2.198420 24.328600 0.000019 0.000005 8.686270 16.097600 -28.854400 22.291600 -0.000001 0.000005 12.370200 5.188450 2.992170 12.994500 -0.242716 -4.980390 88.339300 7.030340 -76.670900 -5.348130 -0.000001 -0.000004 -53.868600 -0.287848 -11.077600 -24.328900 0.000322 -0.000009 -13.108700 -7.340890 -61.254700 -22.291500 -0.000108 -0.000004 21.434500 5.507050 -6.811960 -2.192480 -6.469440 -0.000000 -170.370000 -13.249100 -6.814780 39.081100 -0.000007 -0.000012 -0.110152 0.120353 42.466700 40.985400 -0.000006 -0.000013 2.387370 11.737600 -76.487800 11.754300 -0.000000 0.000003 -0.000076 -0.000817 -16.609100 -2.192510 6.469440 -0.000001 179.546000 14.127700 174.888000 -39.081100 -0.002282 -0.040193 0.037451 -0.039709 40.715800 -40.985400 0.000008 0.000006 7.374400 8.174690 -75.777300 -11.754300 -0.000006 -0.000006 -0.831083 -1.016880 -17.565200
0.000000 0.000000 0.000000 0.000000 0.000000 -0.000000 -0.933019 90.587900 0.147833 87.048700 0.090198 6.814850 15.735700 0.000005 -0.000001 78.283200 85.580300 -79.698000 8.984550 -0.406207 -0.000000 0.870143 -1.709250 -2.814520 16.377300 -0.000001 -0.000001 2.749800 -0.701689 0.272527 6.456720 -0.000001 -0.000000 -0.404140 0.335796 3.447640 12.994200 -0.242716 4.980390 -90.197600 0.530784 -69.565600 5.348090 -0.000007 -0.000001 -71.201600 19.308600 1.444000 24.328600 0.000019 0.000005 10.737100 18.542100 -30.805300 22.291600 -0.000001 0.000005 8.119450 5.235740 1.790340 12.994500 -0.242716 -4.980390 88.930100 4.480450 -76.556100 -5.348130 -0.000001 -0.000004 -46.280900 -10.148600 -18.824900 -24.328900 0.000322 -0.000009 -14.829700 -6.091130 -68.152500 -22.291500 -0.000108 -0.000004 22.543800 5.540400 -8.239450 -2.192480 -6.469440 -0.000000 -171.797000 -13.194500 -4.129910 39.081100 -0.000007 -0.000012 -0.096962 0.149282 33.004800 40.985400 -0.000006 -0.000013 1.709390 11.488400 -72.056900 11.754300 -0.000000 0.000003 -0.000043 -0.000493 -16.596700 -2.192510 6.469440 -0.000001 178.771000 16.350500 176.817000 -39.081100 -0.002282 -0.040193 0.024571 -0.033286 32.584000 -40.985400 0.000008 0.000006 6.753040 10.969100 -70.212600 -11.754300 -0.000006 -0.000006 -1.102810 -1.315430 -19.055400
